<svg width="20" height="18" viewBox="0 0 20 18" fill="none" xmlns="http://www.w3.org/2000/svg">
<g id="004-twitter">
<path id="Path" d="M20 2.79875C19.2562 3.125 18.4637 3.34125 17.6375 3.44625C18.4875 2.93875 19.1362 2.14125 19.4412 1.18C18.6487 1.6525 17.7737 1.98625 16.8412 2.1725C16.0887 1.37125 15.0162 0.875 13.8462 0.875C11.5762 0.875 9.74874 2.7175 9.74874 4.97625C9.74874 5.30125 9.77624 5.61375 9.84374 5.91124C6.43499 5.745 3.41875 4.11125 1.3925 1.6225C1.03875 2.23625 0.831249 2.93875 0.831249 3.695C0.831249 5.115 1.5625 6.37374 2.6525 7.10249C1.99375 7.08999 1.3475 6.89874 0.799999 6.59749C0.799999 6.60999 0.799999 6.62624 0.799999 6.64249C0.799999 8.63499 2.22125 10.29 4.085 10.6712C3.75125 10.7625 3.3875 10.8062 3.01 10.8062C2.7475 10.8062 2.4825 10.7912 2.23375 10.7362C2.765 12.36 4.2725 13.5537 6.06499 13.5925C4.67 14.6837 2.89875 15.3412 0.981249 15.3412C0.644999 15.3412 0.3225 15.3262 0 15.285C1.81625 16.4562 3.96875 17.125 6.28999 17.125C13.835 17.125 17.96 10.875 17.96 5.4575C17.96 5.27625 17.9537 5.10125 17.945 4.9275C18.7587 4.35 19.4425 3.62875 20 2.79875Z" fill="white"/>
</g>
</svg>
