<svg width="20" height="20" viewBox="0 0 20 20" fill="none" xmlns="http://www.w3.org/2000/svg">
<g id="001-office-building">
<path id="Shape" fill-rule="evenodd" clip-rule="evenodd" d="M10.8583 1.55844L1.7 0.166772C1.275 0.100106 0.841666 0.216772 0.516666 0.491772C0.191666 0.775105 0 1.18344 0 1.60844V19.1668C0 19.6251 0.375 20.0001 0.833333 20.0001H3.54166V15.6251C3.54166 14.8168 4.19166 14.1668 5 14.1668H7.08333C7.89166 14.1668 8.54166 14.8168 8.54166 15.6251V20.0001H12.0833V3.0001C12.0833 2.28344 11.5667 1.6751 10.8583 1.55844ZM4.58333 12.2918H3.33333C2.98833 12.2918 2.70833 12.0118 2.70833 11.6668C2.70833 11.3218 2.98833 11.0418 3.33333 11.0418H4.58333C4.92833 11.0418 5.20833 11.3218 5.20833 11.6668C5.20833 12.0118 4.92833 12.2918 4.58333 12.2918ZM3.33333 9.79176H4.58333C4.92833 9.79176 5.20833 9.51176 5.20833 9.16676C5.20833 8.82176 4.92833 8.54176 4.58333 8.54176H3.33333C2.98833 8.54176 2.70833 8.82176 2.70833 9.16676C2.70833 9.51176 2.98833 9.79176 3.33333 9.79176ZM4.58333 7.29177H3.33333C2.98833 7.29177 2.70833 7.01177 2.70833 6.66677C2.70833 6.32177 2.98833 6.04177 3.33333 6.04177H4.58333C4.92833 6.04177 5.20833 6.32177 5.20833 6.66677C5.20833 7.01177 4.92833 7.29177 4.58333 7.29177ZM3.33333 4.79177H4.58333C4.92833 4.79177 5.20833 4.51177 5.20833 4.16677C5.20833 3.82177 4.92833 3.54177 4.58333 3.54177H3.33333C2.98833 3.54177 2.70833 3.82177 2.70833 4.16677C2.70833 4.51177 2.98833 4.79177 3.33333 4.79177ZM8.74999 12.2918H7.49999C7.15499 12.2918 6.87499 12.0118 6.87499 11.6668C6.87499 11.3218 7.15499 11.0418 7.49999 11.0418H8.74999C9.09499 11.0418 9.37499 11.3218 9.37499 11.6668C9.37499 12.0118 9.09499 12.2918 8.74999 12.2918ZM7.49999 9.79176H8.74999C9.09499 9.79176 9.37499 9.51176 9.37499 9.16676C9.37499 8.82176 9.09499 8.54176 8.74999 8.54176H7.49999C7.15499 8.54176 6.87499 8.82176 6.87499 9.16676C6.87499 9.51176 7.15499 9.79176 7.49999 9.79176ZM8.74999 7.29177H7.49999C7.15499 7.29177 6.87499 7.01177 6.87499 6.66677C6.87499 6.32177 7.15499 6.04177 7.49999 6.04177H8.74999C9.09499 6.04177 9.37499 6.32177 9.37499 6.66677C9.37499 7.01177 9.09499 7.29177 8.74999 7.29177ZM7.49999 4.79177H8.74999C9.09499 4.79177 9.37499 4.51177 9.37499 4.16677C9.37499 3.82177 9.09499 3.54177 8.74999 3.54177H7.49999C7.15499 3.54177 6.87499 3.82177 6.87499 4.16677C6.87499 4.51177 7.15499 4.79177 7.49999 4.79177Z" fill="white"/>
<path id="Shape_2" fill-rule="evenodd" clip-rule="evenodd" d="M12.9167 7.79248L18.8501 9.03498C19.5309 9.18581 20.0001 9.77165 20.0001 10.46V18.5416C20.0001 19.3458 19.3459 20 18.5417 20H12.9167V7.79248ZM15.6251 17.5H16.8751C17.2201 17.5 17.5001 17.22 17.5001 16.875C17.5001 16.53 17.2201 16.25 16.8751 16.25H15.6251C15.2801 16.25 15.0001 16.53 15.0001 16.875C15.0001 17.22 15.2801 17.5 15.6251 17.5ZM16.8751 15H15.6251C15.2801 15 15.0001 14.72 15.0001 14.375C15.0001 14.03 15.2801 13.75 15.6251 13.75H16.8751C17.2201 13.75 17.5001 14.03 17.5001 14.375C17.5001 14.72 17.2201 15 16.8751 15ZM15.6251 12.5H16.8751C17.2201 12.5 17.5001 12.22 17.5001 11.875C17.5001 11.53 17.2201 11.25 16.8751 11.25H15.6251C15.2801 11.25 15.0001 11.53 15.0001 11.875C15.0001 12.22 15.2801 12.5 15.6251 12.5Z" fill="white"/>
</g>
</svg>
