<svg width="20" height="20" viewBox="0 0 20 20" fill="none" xmlns="http://www.w3.org/2000/svg">
<g id="002-url">
<path id="Path" d="M7.40404 5.01207C5.0485 7.44921 5.56252 11.4937 8.26076 13.2854C8.34967 13.3445 8.46795 13.3328 8.54431 13.2582C9.11236 12.7031 9.59291 12.1655 10.0137 11.4817C10.0781 11.3771 10.038 11.2414 9.93002 11.1829C9.51845 10.9599 9.10892 10.5418 8.87838 10.1002L8.8781 10.1003C8.60193 9.55042 8.50791 8.93398 8.65412 8.29734C8.65428 8.29738 8.65443 8.29742 8.65459 8.29742C8.82283 7.48234 9.69787 6.72414 10.3662 6.02293C10.3648 6.02246 10.3634 6.02195 10.362 6.02148L12.866 3.46578C13.8639 2.44731 15.5053 2.43891 16.5136 3.44715C17.532 4.445 17.5488 6.09468 16.551 7.11312L15.0343 8.67281C14.9641 8.74499 14.9413 8.85031 14.9742 8.9455C15.3234 9.9582 15.4093 11.3861 15.1752 12.465C15.1687 12.4951 15.2059 12.5149 15.2276 12.4928L18.4556 9.19816C20.5177 7.09347 20.5002 3.66676 18.4167 1.58324C16.2904 -0.543044 12.8289 -0.525348 10.7245 1.6225L7.41697 4.99824C7.4126 5.00285 7.40846 5.00754 7.40404 5.01207Z" fill="white"/>
<path id="Path_2" d="M13.439 13.7496C13.4389 13.7497 13.4388 13.7499 13.4388 13.75C13.4409 13.7491 13.4428 13.7483 13.4449 13.7474C14.1036 12.5428 14.2333 11.1612 13.9246 9.81432L13.9232 9.81576L13.9217 9.8151C13.6285 8.61553 12.8241 7.42436 11.7316 6.69096C11.6376 6.62787 11.4875 6.63518 11.3995 6.70635C10.8461 7.15381 10.3044 7.7276 9.94697 8.45983C9.89083 8.57479 9.93287 8.71287 10.0435 8.77709C10.4583 9.01791 10.8329 9.37049 11.0837 9.83857L11.0841 9.8383C11.2796 10.169 11.4722 10.7964 11.3474 11.4705C11.3474 11.4705 11.3472 11.4705 11.3472 11.4705C11.2308 12.3643 10.3282 13.1842 9.61068 13.9229L9.61103 13.9233C9.06486 14.4818 7.67646 15.8972 7.12052 16.4651C6.12267 17.4836 4.47299 17.5004 3.45455 16.5026C2.43612 15.5047 2.41928 13.855 3.41713 12.8366L4.93834 11.2722C5.00728 11.2013 5.03072 11.0983 5.00006 11.0042C4.66228 9.96787 4.56975 8.57213 4.78295 7.49451C4.78889 7.46447 4.75193 7.44529 4.73049 7.46717L1.551 10.7123C-0.53228 12.8386 -0.514624 16.3004 1.5903 18.4053C3.71647 20.4885 7.16049 20.4533 9.24369 18.3272C9.9674 17.5176 13.0654 14.6493 13.439 13.7496Z" fill="white"/>
</g>
</svg>
